<?xml version="1.0" encoding="UTF-8"?>
<svg id="Lager_2" data-name="Lager 2" xmlns="http://www.w3.org/2000/svg" viewBox="0 0 51 60">
  <defs>
    <style>
      .cls-1 {
        stroke: #233c37;
        stroke-miterlimit: 10;
        stroke-width: 2.5px;
      }

      .cls-1, .cls-2 {
        fill: #233c37;
      }

      .cls-3 {
        fill: #e2f0d9;
      }
    </style>
  </defs>
  <g id="Layer_1" data-name="Layer 1">
    <ellipse class="cls-3" cx="25.5" cy="26" rx="25.5" ry="26"/>
    <g>
      <path class="cls-2" d="m42.86,44.55c-2.25-.04-4.17-1.6-4.72-3.7-.31-1.18-.31-2.45-.39-3.68-.11-1.89-.72-3.46-2.94-4.25.64,2.73.91,4.51,1.55,7.24.06.7.11,1.12-.01,1.21-.51-.73-1.22-1.4-1.47-2.21-.44-1.41-.6-2.9-.88-4.36-.37-1.91-.85-3.74-3.57-4.77.97,2.64,1.77,4.82,2.61,7.08-1.42.07-1.92-.97-2.31-1.96-.41-1.03-.56-2.15-.89-3.22-.47-1.54-1.24-2.82-3.67-3.16,1.12,1.96,2.2,3.79,3.11,5.37-.41-.05-.61-.32-1.11-.63-.89-.7-1.22-.64-1.81-1.52-1-1.47-1.81-3.07-2.81-4.8.29-.03.83-.17,1.34-.1,7.05.97,12.59,4.37,16.32,10.47,1.45,2.37,2.64,4.91,3.94,7.37.43.81.43,1.44-.71,1.54-2.47.23-4.23,1.69-5.69,3.52-1.54,1.94-2.88,4.04-4.45,5.96-1.05,1.28-2.29,2.42-3.56,3.49-.45.38-1.21.38-1.83.55-.13-.58-.37-1.16-.36-1.74.04-4.49-.08-8.94-1.95-13.14-.13-.28-.02-.67.23-1.09,1.91,1.79,2.26,4.26,2.59,6.65.34,2.45.39,4.93.61,7.91.94-.86,1.76-1.44,2.36-2.2,1.43-1.8,2.77-3.66,4.1-5.52,1.84-2.57,3.89-4.84,7.5-5.73-1.49-2.72-2.87-5.26-4.26-7.8-.26.08-.51.17-.77.25.27,1.32.27,2.78.89,3.91.61,1.12,1.84,1.9,3.03,3.06Z"/>
      <path class="cls-2" d="m12.16,45.06c-1.45,1.25-2.79,2.7-4.43,3.62-.41.23-2.4-1.12-2.58-1.97-.32-1.53-.22-3.31,1.23-4.61,1.43-1.29,2.71-2.74,4.1-4.06,1.42-1.34,2.49-2.75,3.02-4.75.3-1.12,1.61-2.14,2.71-2.83,1.86-1.17,2.5-2.51,1.63-4.59-.31-.74-.28-1.62-.42-2.5,2.49.26,4.91,2.42,5.13,4.37.14,1.22-.27,1.85-1.81,2.36.99-2.06.53-3.56-1.33-4.57-.12.17-.27.29-.25.34,1.22,2.72-.04,4.39-2.35,5.66-1.54.85-2.48,2.11-2.72,3.95-.09.65-.65,1.32-1.15,1.84-1.8,1.88-3.69,3.68-5.5,5.56-.45.47-.95,1.11-.98,1.7-.04.83.35,1.68.55,2.52.66-.3,1.38-.53,1.98-.93.85-.58,1.61-1.3,2.41-1.95.24.28.49.56.73.84Z"/>
      <path class="cls-2" d="m18.61,41.93c2.02,1.44,4.05,2.09,6.17.61,2.19-1.52,2.09-3.68,1.29-6.05.23-.02.47-.04.7-.06.3.44.71.83.87,1.31,1.03,3.05-1.34,6.18-4.71,6.93-3.05.68-6,1.87-8.97,2.9-.4.14-.6.75-.97,1.05-.66.53-1.31,1.16-2.08,1.42-.5.17-1.19-.24-1.79-.38.46-.26.91-.54,1.37-.79.32-.17.86-.21.98-.46,1.22-2.66,4.04-2.54,6.16-3.64.44-.23.91-.39,1.42-.6-.23-.62-.45-1.19-.66-1.75.07-.16.14-.32.21-.49Z"/>
    </g>
    <g id="pnjVzH.tif">
      <path class="cls-1" d="m42.85,31.87s.07-.05.09-.07c.9-.7,1.74-1.47,2.51-2.33.65-.72,1.23-1.49,1.66-2.38.32-.66.52-1.36.45-2.12-.16-1.69-1.53-2.38-2.71-2.17-.8.15-1.37.67-1.81,1.38-.06.1-.12.21-.19.33-.07-.12-.12-.23-.19-.33-.59-.91-1.35-1.5-2.46-1.4-1.04.09-1.87.91-2.03,2-.11.76.05,1.48.36,2.16.01.03.19.42.23.49,1.05,1.82,2.51,3.17,4.07,4.43Z"/>
    </g>
  </g>
</svg>