<?xml version="1.0" encoding="utf-8"?>
<!-- Generator: Adobe Illustrator 27.8.1, SVG Export Plug-In . SVG Version: 6.00 Build 0)  -->
<svg version="1.1" id="Lager_2_00000055693244092811667930000000523315728643723177_"
	 xmlns="http://www.w3.org/2000/svg" xmlns:xlink="http://www.w3.org/1999/xlink" x="0px" y="0px" viewBox="0 0 51 60"
	 style="enable-background:new 0 0 51 60;" xml:space="preserve">
<style type="text/css">
	.st0{fill:#E2F0D9;}
	.st1{fill:#233C37;}
	.st2{fill:#233C37;stroke:#233C37;stroke-width:2.5;stroke-miterlimit:10;}
	.st3{fill:none;stroke:#033934;stroke-width:1.3;stroke-linecap:round;stroke-linejoin:round;}
	.st4{fill:#033934;}
</style>
<g id="Layer_1">
	<ellipse class="st0" cx="25.5" cy="26" rx="25.5" ry="26"/>
	<g>
		<path class="st1" d="M42.9,44.5c-2.2,0-4.2-1.6-4.7-3.7c-0.3-1.2-0.3-2.5-0.4-3.7c-0.1-1.9-0.7-3.5-2.9-4.2
			c0.6,2.7,0.9,4.5,1.5,7.2c0.1,0.7,0.1,1.1,0,1.2c-0.5-0.7-1.2-1.4-1.5-2.2c-0.4-1.4-0.6-2.9-0.9-4.4c-0.4-1.9-0.8-3.7-3.6-4.8
			c1,2.6,1.8,4.8,2.6,7.1c-1.4,0.1-1.9-1-2.3-2c-0.4-1-0.6-2.2-0.9-3.2c-0.5-1.5-1.2-2.8-3.7-3.2c1.1,2,2.2,3.8,3.1,5.4
			c-0.4,0-0.6-0.3-1.1-0.6c-0.9-0.7-1.2-0.6-1.8-1.5c-1-1.5-1.8-3.1-2.8-4.8c0.3,0,0.8-0.2,1.3-0.1c7,1,12.6,4.4,16.3,10.5
			c1.5,2.4,2.6,4.9,3.9,7.4c0.4,0.8,0.4,1.4-0.7,1.5c-2.5,0.2-4.2,1.7-5.7,3.5c-1.5,1.9-2.9,4-4.5,6c-1,1.3-2.3,2.4-3.6,3.5
			c-0.5,0.4-1.2,0.4-1.8,0.5c-0.1-0.6-0.4-1.2-0.4-1.7c0-4.5-0.1-8.9-2-13.1c-0.1-0.3,0-0.7,0.2-1.1c1.9,1.8,2.3,4.3,2.6,6.7
			c0.3,2.5,0.4,4.9,0.6,7.9c0.9-0.9,1.8-1.4,2.4-2.2c1.4-1.8,2.8-3.7,4.1-5.5c1.8-2.6,3.9-4.8,7.5-5.7c-1.5-2.7-2.9-5.3-4.3-7.8
			c-0.3,0.1-0.5,0.2-0.8,0.2c0.3,1.3,0.3,2.8,0.9,3.9C40.5,42.6,41.7,43.4,42.9,44.5L42.9,44.5z"/>
		<path class="st1" d="M12.2,45.1c-1.4,1.2-2.8,2.7-4.4,3.6c-0.4,0.2-2.4-1.1-2.6-2c-0.3-1.5-0.2-3.3,1.2-4.6
			c1.4-1.3,2.7-2.7,4.1-4.1c1.4-1.3,2.5-2.8,3-4.8c0.3-1.1,1.6-2.1,2.7-2.8c1.9-1.2,2.5-2.5,1.6-4.6c-0.3-0.7-0.3-1.6-0.4-2.5
			c2.5,0.3,4.9,2.4,5.1,4.4c0.1,1.2-0.3,1.9-1.8,2.4c1-2.1,0.5-3.6-1.3-4.6c-0.1,0.2-0.3,0.3-0.2,0.3c1.2,2.7,0,4.4-2.4,5.7
			c-1.5,0.8-2.5,2.1-2.7,4c-0.1,0.7-0.6,1.3-1.1,1.8c-1.8,1.9-3.7,3.7-5.5,5.6c-0.4,0.5-0.9,1.1-1,1.7c0,0.8,0.3,1.7,0.6,2.5
			c0.7-0.3,1.4-0.5,2-0.9c0.9-0.6,1.6-1.3,2.4-2C11.6,44.5,11.9,44.8,12.2,45.1L12.2,45.1z"/>
		<path class="st1" d="M18.6,41.9c2,1.4,4,2.1,6.2,0.6c2.2-1.5,2.1-3.7,1.3-6c0.2,0,0.5,0,0.7-0.1c0.3,0.4,0.7,0.8,0.9,1.3
			c1,3-1.3,6.2-4.7,6.9c-3,0.7-6,1.9-9,2.9c-0.4,0.1-0.6,0.8-1,1c-0.7,0.5-1.3,1.2-2.1,1.4c-0.5,0.2-1.2-0.2-1.8-0.4
			c0.5-0.3,0.9-0.5,1.4-0.8c0.3-0.2,0.9-0.2,1-0.5c1.2-2.7,4-2.5,6.2-3.6c0.4-0.2,0.9-0.4,1.4-0.6c-0.2-0.6-0.5-1.2-0.7-1.8
			C18.5,42.3,18.5,42.1,18.6,41.9L18.6,41.9z"/>
	</g>
	<g id="pnjVzH.tif">
		<path class="st2" d="M42.8,31.9C42.8,31.9,42.9,31.8,42.8,31.9c1-0.8,1.8-1.5,2.6-2.4c0.7-0.7,1.2-1.5,1.7-2.4
			c0.3-0.7,0.5-1.4,0.5-2.1c-0.2-1.7-1.5-2.4-2.7-2.2C44,23,43.5,23.5,43,24.2c-0.1,0.1-0.1,0.2-0.2,0.3c-0.1-0.1-0.1-0.2-0.2-0.3
			c-0.6-0.9-1.3-1.5-2.5-1.4c-1,0.1-1.9,0.9-2,2c-0.1,0.8,0,1.5,0.4,2.2c0,0,0.2,0.4,0.2,0.5C39.8,29.2,41.3,30.6,42.8,31.9
			L42.8,31.9z"/>
	</g>
</g>
</svg>
