<?xml version="1.0" encoding="UTF-8"?>
<svg id="Lager_2" data-name="Lager 2" xmlns="http://www.w3.org/2000/svg" viewBox="0 0 51 59.5">
  <defs>
    <style>
      .cls-1 {
        fill: #033934;
      }

      .cls-2 {
        fill: #e2f0d9;
      }
    </style>
  </defs>
  <g id="Layer_1" data-name="Layer 1">
    <ellipse class="cls-2" cx="25.5" cy="26" rx="25.5" ry="26"/>
    <path class="cls-1" d="m46.47,45.51c-.11-.18-.3-.3-.51-.3h-1.7l-4.42-15.27c.16-.11.27-.29.27-.5v-1.43c.32-.36.52-.84.52-1.37,0-1.13-.92-2.06-2.06-2.06s-2.06.92-2.06,2.06c0,.17.02.33.06.48h-8.66l-1.88-4.29c-.09-.22-.31-.35-.54-.35s-.45.14-.54.35l-1.88,4.29h-8.8c-.02-1.1-.92-1.98-2.02-1.98s-2.02.91-2.02,2.02c0,.59.25,1.12.65,1.49v.78c0,.2.1.38.25.48l-4.45,15.38h-1.65c-.21,0-.41.11-.51.3-.11.18-.11.41,0,.59,1.59,2.75,4.55,4.46,7.73,4.46s6.14-1.71,7.73-4.46c.11-.18.11-.41,0-.59-.11-.18-.3-.3-.51-.3h-1.65l-4.42-15.27h8.87c.21.9.78,1.66,1.56,2.11v21.78h-6.58c-1.27,0-2.31,1.04-2.31,2.31v2.66c0,.33.27.59.59.59h19.92c.33,0,.59-.27.59-.59v-2.66c0-1.27-1.04-2.31-2.31-2.31h-6.58v-21.78c.78-.45,1.35-1.21,1.56-2.11h8.55l-4.39,15.17h-1.7c-.21,0-.41.11-.51.3-.11.18-.11.41,0,.59,1.63,2.81,4.65,4.56,7.9,4.56s6.27-1.75,7.9-4.56c.11-.18.11-.41,0-.59Zm-7.9,3.97c-2.46,0-4.78-1.16-6.27-3.08h12.55c-1.49,1.92-3.81,3.08-6.27,3.08Zm-11.08-19.44c-.08.21-.19.4-.32.57-.16.21-.36.38-.59.52-.18.11-.38.19-.59.24-.15.04-.32.06-.48.06s-.33-.02-.48-.06c-.21-.05-.41-.13-.59-.24-.23-.13-.43-.31-.59-.52-.14-.17-.25-.37-.32-.57-.07-.19-.11-.39-.13-.59,0-.01,0-.02,0-.03l.24-.56.23-.53.26-.59.26-.59,1.12-2.57,1.12,2.57.26.59.26.59.23.53.24.56s0,.02,0,.03c-.01.21-.06.41-.13.59Zm7.38,26.21v2.07h-18.74v-2.07c0-.62.5-1.13,1.13-1.13h16.49c.62,0,1.13.5,1.13,1.13Zm-8.89-2.31h-.96v-21.37c.16.02.32.04.48.04s.32-.01.48-.04v21.37Zm-13.72-27.6c.45,0,.82.35.84.8,0,.01,0,.03,0,.04,0,.21-.08.4-.21.55-.04.05-.09.09-.14.13-.14.1-.31.16-.49.16s-.35-.06-.49-.16c-.05-.04-.1-.08-.14-.13-.13-.15-.21-.34-.21-.55,0-.01,0-.03,0-.04.02-.44.39-.8.84-.8Zm1.67,1.98h8.63l-.23.53h-8.93c.21-.14.39-.32.53-.53Zm14.74.53l-.23-.53h8.94c.11.08.22.14.34.2l-.1.33h-8.95Zm9.03-2.2c0-.48.39-.87.87-.87s.87.39.87.87c0,.18-.05.35-.15.48-.06.09-.14.17-.23.23-.14.1-.31.16-.5.16s-.36-.06-.5-.16c-.09-.06-.17-.14-.23-.23-.09-.14-.15-.31-.15-.48ZM6.16,46.49h12.21c-1.46,1.86-3.71,2.98-6.1,2.98s-4.65-1.12-6.1-2.98Zm10.44-1.18H7.93l4.33-14.98,4.33,14.98Zm21.91-15.27h.13l4.39,15.17h-8.9l4.39-15.17Z"/>
  </g>
</svg>