<?xml version="1.0" encoding="utf-8"?>
<!-- Generator: Adobe Illustrator 27.8.1, SVG Export Plug-In . SVG Version: 6.00 Build 0)  -->
<svg version="1.1" id="Lager_2_00000055693244092811667930000000523315728643723177_"
	 xmlns="http://www.w3.org/2000/svg" xmlns:xlink="http://www.w3.org/1999/xlink" x="0px" y="0px" viewBox="0 0 51 60"
	 style="enable-background:new 0 0 51 60;" xml:space="preserve">
<style type="text/css">
	.st0{fill:#E2F0D9;}
	.st1{fill:#233C37;}
	.st2{fill:#233C37;stroke:#233C37;stroke-width:2.5;stroke-miterlimit:10;}
	.st3{fill:none;stroke:#033934;stroke-width:1.3;stroke-linecap:round;stroke-linejoin:round;}
	.st4{fill:#033934;}
</style>
<g id="Layer_1_00000018926429488219302280000008372510952482529201_">
	<ellipse class="st0" cx="25.5" cy="26" rx="25.5" ry="26"/>
</g>
<g id="Group_279" transform="translate(0.75 0.75)">
	<path id="Rectangle_558" class="st3" d="M5.4,21.3h31.8c1.5,0,2.7,1.2,2.7,2.7v24.9c0,1.5-1.2,2.7-2.7,2.7H5.4
		c-1.5,0-2.7-1.2-2.7-2.7V23.9C2.7,22.4,3.9,21.3,5.4,21.3z"/>
	<line id="Line_246" class="st3" x1="2.7" y1="28.2" x2="39.3" y2="28.2"/>
	<line id="Line_247" class="st3" x1="12.4" y1="21.3" x2="12.4" y2="45.1"/>
	<line id="Line_248" class="st3" x1="20.5" y1="21.3" x2="20.5" y2="27.8"/>
	<line id="Line_249" class="st3" x1="35.2" y1="21.7" x2="35.2" y2="28.2"/>
	<path id="Path_630" class="st3" d="M5.1,50.5c0,0-0.2-5.4,11.5-5.4s11.5,6.4,11.5,6.4"/>
	<path id="Path_631" class="st3" d="M20.8,45.1V32.6c0-0.7,0.6-1.2,1.2-1.2h9.4c0.7,0,1.2,0.6,1.2,1.2v18.7"/>
	<line id="Line_250" class="st3" x1="20.8" y1="38.2" x2="32.2" y2="38.2"/>
	<path id="Path_632" class="st3" d="M41.4,30.9h-3.1c0,0-2,0.3-2,2c0,0.6,0.3,1.1,0.6,1.4c0.6,0.6,1.4,0.9,2.2,0.9h2.3"/>
	<line id="Line_251" class="st3" x1="30.1" y1="41.6" x2="30.1" y2="43.9"/>
	<path id="Path_633" class="st3" d="M41.7,47.4l4.6,1.6v2.5"/>
	<line id="Line_252" class="st3" x1="38.2" y1="51.5" x2="49.5" y2="51.5"/>
	<line id="Line_253" class="st3" x1="2.7" y1="54.7" x2="29" y2="54.7"/>
	<line id="Line_254" class="st3" x1="33.7" y1="54.7" x2="49.5" y2="54.7"/>
	<line id="Line_255" class="st3" x1="47.5" y1="51.5" x2="47.5" y2="54.7"/>
	<circle id="Ellipse_262" class="st3" cx="22.5" cy="51.5" r="3.3"/>
	<circle id="Ellipse_263" class="st3" cx="12.2" cy="51.5" r="3.3"/>
</g>
</svg>
