<?xml version="1.0" encoding="UTF-8"?>
<svg id="Lager_2" data-name="Lager 2" xmlns="http://www.w3.org/2000/svg" viewBox="0 0 53.68 59.5">
  <defs>
    <style>
      .cls-1 {
        fill: #e2f0d9;
      }

      .cls-2 {
        fill: #233c37;
      }
    </style>
  </defs>
  <g id="Layer_1" data-name="Layer 1">
    <ellipse class="cls-1" cx="25.5" cy="26" rx="25.5" ry="26"/>
    <g id="Page-1">
      <g id="_003---Horse-Box" data-name="003---Horse-Box">
        <path id="Shape" class="cls-2" d="m52.84,56.14c.46,0,.84-.38.84-.84s-.38-.84-.84-.84h-2.52v-1.08c0-.72-.46-1.37-1.15-1.6l-3.9-1.3v-22.94c0-2.79-2.26-5.04-5.05-5.05H8.28c-2.79,0-5.04,2.26-5.05,5.05v25.23c0,1.86,1.51,3.36,3.36,3.36h3.45c.13.61.4,1.19.78,1.68h-6.75c-.46,0-.84.38-.84.84s.38.84.84.84h28.59c.46,0,.84-.38.84-.84s-.38-.84-.84-.84h-5.07c.38-.5.65-1.07.78-1.68h21.95v1.68h-14.3c-.46,0-.84.38-.84.84s.38.84.84.84h16.82c.46,0,.84-.38.84-.84s-.38-.84-.84-.84h-.84v-1.68h.84Zm-4.2-2.76v1.08h-3.83c.3-.51.46-1.09.47-1.68v-.51l3.36,1.12Zm-11.77,1.08v-19.34c0-1.39-1.13-2.52-2.52-2.52h-10.09c-1.39,0-2.52,1.13-2.52,2.52v12.61h-6.73v-16.82h28.59v1.68h-2.52c-1.39,0-2.52,1.13-2.52,2.52v.84c0,1.39,1.13,2.52,2.52,2.52h2.52v14.3c0,.93-.75,1.68-1.68,1.68h-5.05Zm-12.61-3.36c-2,0-3.72,1.41-4.12,3.36h-1.85c-.4-1.96-2.12-3.37-4.12-3.37s-3.72,1.41-4.12,3.37h-1.7c.42-2.89,2.9-5.04,5.82-5.05h10.09c2.92,0,5.4,2.15,5.82,5.05h-1.7c-.4-1.96-2.12-3.36-4.12-3.36Zm-5.97,5.05h1.85c.13.61.4,1.19.78,1.68h-3.41c.38-.5.65-1.07.78-1.68Zm16.9-15.98h-11.77v-5.05c0-.46.38-.84.84-.84h10.09c.46,0,.84.38.84.84v5.05Zm-11.77-10.93v-5.05h13.45v5.05h-13.45Zm-1.68,0h-6.73v-5.05h6.73v5.05Zm21.86,7.57h-2.52c-.46,0-.84-.38-.84-.84v-.84c0-.46.38-.84.84-.84h2.52v2.52Zm0-9.25v1.68h-5.05v-5.05h1.68c1.86,0,3.36,1.51,3.36,3.36Zm-35.32-3.36h5.05v5.05H4.91v-1.68c0-1.86,1.51-3.36,3.36-3.36Zm-3.36,28.59v-21.86h8.41v16.87c-3.51.4-6.28,3.17-6.68,6.68h-.05c-.93,0-1.68-.75-1.68-1.68Zm6.73,2.52c0-1.02.61-1.94,1.56-2.33s2.03-.17,2.75.55.94,1.81.55,2.75-1.31,1.56-2.33,1.56c-1.39,0-2.52-1.13-2.52-2.52Zm10.09,0c0-1.02.61-1.94,1.56-2.33s2.03-.17,2.75.55.94,1.81.55,2.75-1.31,1.56-2.33,1.56c-1.39,0-2.52-1.13-2.52-2.52Zm10.04-.84c-.43-3.83-3.67-6.72-7.52-6.73h-.84v-5.89h11.77v12.61h-3.41Z"/>
        <path id="Shape-2" data-name="Shape" class="cls-2" d="m32.66,44.36c-.46,0-.84.38-.84.84v1.68c0,.46.38.84.84.84s.84-.38.84-.84v-1.68c0-.46-.38-.84-.84-.84Z"/>
      </g>
    </g>
  </g>
</svg>