<?xml version="1.0" encoding="utf-8"?>
<!-- Generator: Adobe Illustrator 27.8.1, SVG Export Plug-In . SVG Version: 6.00 Build 0)  -->
<svg version="1.1" id="Lager_2_00000055693244092811667930000000523315728643723177_"
	 xmlns="http://www.w3.org/2000/svg" xmlns:xlink="http://www.w3.org/1999/xlink" x="0px" y="0px" viewBox="0 0 51 60"
	 style="enable-background:new 0 0 51 60;" xml:space="preserve">
<style type="text/css">
	.st0{fill:#E2F0D9;}
	.st1{fill:#233C37;}
	.st2{fill:#233C37;stroke:#233C37;stroke-width:2.5;stroke-miterlimit:10;}
	.st3{fill:none;stroke:#033934;stroke-width:1.3;stroke-linecap:round;stroke-linejoin:round;}
	.st4{fill:#033934;}
</style>
<g id="Layer_1_00000005234797613668096070000000972576340095141250_">
	<ellipse class="st0" cx="25.5" cy="26" rx="25.5" ry="26"/>
</g>
<g id="Lager_2_00000137831127632541850360000000962785041837664920_" transform="translate(0.75 0.75)">
	<g id="Group_280">
		<path id="Path_634" class="st3" d="M5.3,48V29.3l14.1-8.9l14.1,8.9v4.2"/>
		<line id="Line_256" class="st3" x1="8.9" y1="32.9" x2="29.8" y2="32.9"/>
		<path id="Path_635" class="st3" d="M13.8,27.7l6.3,5.2v-8.3"/>
		<line id="Line_257" class="st3" x1="26.7" y1="27.7" x2="20.4" y2="32.9"/>
		<rect id="Rectangle_559" x="17.1" y="37.1" class="st3" width="6.3" height="4.2"/>
		<path id="Path_636" class="st3" d="M14.3,49.1v-3.2H26v11.6"/>
		<line id="Line_258" class="st3" x1="2.6" y1="57.9" x2="46.9" y2="57.9"/>
		<path id="Path_637" class="st3" d="M4.1,57.9v-5.8l1.6-1.5L7.6,52l1.3-1.4l2.1,1l1.3-1l1.6,1.4v5.9"/>
		<line id="Line_259" class="st3" x1="7.6" y1="52" x2="7.6" y2="57.9"/>
		<line id="Line_260" class="st3" x1="39.2" y1="52" x2="39.2" y2="57.9"/>
		<line id="Line_261" class="st3" x1="11" y1="51.7" x2="11" y2="57.9"/>
		<path id="Path_638" class="st3" d="M35.7,57.9v-5.8l1.6-1.5l1.8,1.4l1.3-1.4l2.1,1l1.3-1l1.6,1.4v5.9"/>
		<line id="Line_262" class="st3" x1="42.5" y1="51.7" x2="42.5" y2="57.9"/>
		<path id="Path_639" class="st3" d="M31.4,57.9v-5.7l2.1-1.6l1.5,1.5"/>
		<line id="Line_263" class="st3" x1="39.2" y1="44.4" x2="39.2" y2="51.4"/>
		<path id="Path_640" class="st3" d="M39.1,48.5l-2.1-1c-1,1.2-2.7,1.4-4,0.5c-0.9-0.5-1.5-1.5-1.5-2.5c0-0.6,0.3-1.2,0.8-1.6
			c0.6-0.5,1.4-1.1,2-1.1c0,0-1-2.1,0-3.1c0.5-0.6,1.3-0.9,2.1-0.8c0,0-0.5-3.3,3.1-3.3c3.7,0,3.1,3.1,3.1,3.1
			c0.8-0.1,2.1,0.3,2.5,1.1c0.8,1.6-0.4,3.1-0.4,3.1s3.1,2.1,1.6,4.7S41.7,47,41.7,47L39.1,48.5"/>
	</g>
	<circle id="Ellipse_265" class="st4" cx="41" cy="41.8" r="0.8"/>
	<circle id="Ellipse_266" class="st4" cx="34.1" cy="44.9" r="0.8"/>
</g>
</svg>
