<svg xmlns="http://www.w3.org/2000/svg" xmlns:xlink="http://www.w3.org/1999/xlink" width="192" height="124" viewBox="0 0 192 124">
  <defs>
    <clipPath id="clip-path">
      <rect id="Rectangle_470" data-name="Rectangle 470" width="192" height="124" transform="translate(868 261)" fill="#fff" stroke="#707070" stroke-width="1"/>
    </clipPath>
  </defs>
  <g id="Mask_Group_13" data-name="Mask Group 13" transform="translate(-868 -261)" clip-path="url(#clip-path)">
    <g id="BankID_logo" transform="translate(889.279 261)">
      <g id="Group_183" data-name="Group 183" transform="translate(36.518 25.895)">
        <path id="Path_575" data-name="Path 575" d="M55.226,59.117l3.18-20.042h-3.4c-1.59,0-3.637-.891-4.24-2.529-.193-.554-.65-2.457,1.975-4.312a3.861,3.861,0,0,0,1.662-1.927,1.5,1.5,0,0,0-.434-1.469,4.706,4.706,0,0,0-3.156-.867c-2.433,0-4.143,1.4-4.312,2.409a1.95,1.95,0,0,0,.964,1.734,3.075,3.075,0,0,1,.939,4.312,6.289,6.289,0,0,1-5.3,2.65H39.641c-.289,1.951-5.01,31.869-5.372,34.23H53.01c.169-1.036,1.036-6.7,2.216-14.188Z" transform="translate(-31.21 -21.563)" fill="#193e4f"/>
        <g id="Group_182" data-name="Group 182" transform="translate(0 58.68)">
          <path id="Path_576" data-name="Path 576" d="M33.668,73.231h7.684c3.276,0,4.071,1.662,3.83,3.18A3.62,3.62,0,0,1,42.7,79.157c1.831.7,2.553,1.783,2.288,3.493a4.5,4.5,0,0,1-4.625,3.734H31.62Zm5.083,5.444a2.08,2.08,0,0,0,2.337-1.734c.145-1.012-.313-1.71-1.807-1.71H37.956l-.53,3.445Zm-.819,5.661c1.542,0,2.433-.626,2.65-1.9.169-1.108-.458-1.758-1.951-1.758H37.137l-.578,3.686h1.373Z" transform="translate(-31.62 -73.231)" fill="#193e4f"/>
          <path id="Path_577" data-name="Path 577" d="M53.836,86.105c-2,.145-2.963-.072-3.445-.939a6.6,6.6,0,0,1-3.493.988c-2.264,0-3.059-1.18-2.842-2.481a2.943,2.943,0,0,1,1.036-1.734c1.253-1.084,4.336-1.229,5.54-2.048.1-.915-.265-1.253-1.4-1.253-1.325,0-2.433.434-4.336,1.734l.458-2.987a8.3,8.3,0,0,1,5.059-1.734c2.337,0,4.408.964,4.023,3.517l-.458,2.891c-.169,1.012-.12,1.325,1.012,1.349Zm-3.469-4.553c-1.06.674-3.035.554-3.252,1.951a.93.93,0,0,0,.964,1.132,3.8,3.8,0,0,0,2.023-.7A2.638,2.638,0,0,1,50.15,83Z" transform="translate(-29.699 -72.857)" fill="#193e4f"/>
          <path id="Path_578" data-name="Path 578" d="M55.963,75.819h4l-.217,1.325a5.022,5.022,0,0,1,3.493-1.493c2.24,0,3.276,1.373,2.915,3.613l-1.036,6.721h-4l.867-5.564c.169-1.012-.145-1.493-.915-1.493a2.211,2.211,0,0,0-1.758,1.084l-.915,5.95h-4Z" transform="translate(-28.092 -72.857)" fill="#193e4f"/>
          <path id="Path_579" data-name="Path 579" d="M67.562,73.231h4l-1.012,6.456,3.83-3.493h4.938L74.4,80.53l3.951,5.829H73.319l-3.035-4.721h-.048l-.723,4.7h-4Z" transform="translate(-26.37 -73.231)" fill="#193e4f"/>
        </g>
        <path id="Path_580" data-name="Path 580" d="M79.8,73.231h4.6L82.379,86.36h-4.6Z" transform="translate(-24.47 -14.552)" fill="#193e4f"/>
        <path id="Path_581" data-name="Path 581" d="M85.729,73.231H92.3c5.083,0,6.552,3.686,6.07,6.745A7.28,7.28,0,0,1,91.1,86.36H83.681Zm4.264,10c2.24,0,3.469-1.108,3.83-3.445.265-1.734-.265-3.445-2.746-3.445H89.848l-1.06,6.889Z" transform="translate(-23.556 -14.552)" fill="#193e4f"/>
        <path id="Path_582" data-name="Path 582" d="M77.144,22.422H57.993L55.44,38.634h3.252a4.987,4.987,0,0,0,4.191-2A1.935,1.935,0,0,0,63.22,35.6a1.955,1.955,0,0,0-.915-1.518,3.24,3.24,0,0,1-1.518-2.626,1.947,1.947,0,0,1,.024-.385c.265-1.71,2.577-3.565,5.637-3.565a5.871,5.871,0,0,1,4.071,1.229,2.832,2.832,0,0,1,.819,2.722A5.34,5.34,0,0,1,69.146,34.2c-1.855,1.3-1.614,2.433-1.493,2.77a3.354,3.354,0,0,0,2.987,1.662H75.6v.024c6.745.048,10.358,3.156,9.226,10.382-1.06,6.721-6.215,9.611-12.357,9.66L70.037,74.212h3.589c15.152,0,27.533-9.732,29.966-25.1C106.6,30.034,94.487,22.422,77.144,22.422Z" transform="translate(-27.931 -22.422)" fill="#193e4f"/>
      </g>
      <rect id="Rectangle_471" data-name="Rectangle 471" width="149.156" height="123.574" fill="none"/>
    </g>
  </g>
</svg>
