<?xml version="1.0" encoding="utf-8"?>
<!-- Generator: Adobe Illustrator 25.4.1, SVG Export Plug-In . SVG Version: 6.00 Build 0)  -->
<svg version="1.1" id="Layer_1" xmlns="http://www.w3.org/2000/svg" xmlns:xlink="http://www.w3.org/1999/xlink" x="0px" y="0px"
	 viewBox="0 0 300 86.5" style="enable-background:new 0 0 300 86.5;" xml:space="preserve">
<style type="text/css">
	.st0{fill:#FFFFFF;}
</style>
<g>
	<path class="st0" d="M41.4,4.3h10.8v51.3c0,16.3-12.2,25-24.7,25C13.6,80.6,2.8,69.5,2.8,56c0-13.7,10.6-24.6,24.7-24.6
		c8.8,0,13.9,4.4,13.9,4.4V4.3z M27.5,70.2c7.9,0,13.9-6.1,13.9-14.2c0-8.5-6.2-14.2-13.9-14.2c-7.8,0-13.9,5.9-13.9,14.2
		C13.6,64.1,19.7,70.2,27.5,70.2z"/>
	<path class="st0" d="M87.4,57.9v-26h10.8v26c0,16.5-10.7,22.7-20.6,22.7c-9.7,0-20.5-6.1-20.5-22.7v-26h10.8v26
		c0,8.4,4,12.3,9.6,12.3C83.5,70.2,87.4,66.2,87.4,57.9z"/>
	<path class="st0" d="M114.1,54.1v26h-10.8v-26c0-16.6,10.7-22.7,20.5-22.7c9.8,0,20.6,6.2,20.6,22.7v26h-10.8v-26
		c0-8.2-4-12.3-9.7-12.3C118.1,41.7,114.1,45.7,114.1,54.1z"/>
	<path class="st0" d="M161.7,80.6c-7.6,0-13.4-3.5-13.4-3.5V66.6c0,0,5.9,3.6,13.4,3.6c2.8,0,6.6-0.8,6.6-4.5
		c0-7.6-20.6-4.7-20.6-20.2c0-8.9,7.5-14.1,17-14.1c7.8,0,12.4,3.1,12.4,3.1v10.1c0,0-5-2.7-12.4-2.7c-2,0-6.1,0.6-6.1,3.7
		c0,6.7,20.6,3.8,20.6,20.2C179.1,75,172.1,80.6,161.7,80.6z"/>
	<path class="st0" d="M203.4,80.1h-2.3c-9.6,0-18.6-4.3-18.6-19.3V10.4h10.7v21.5h9.3v10.4h-9.3v18.4c0,5.7,2,8.9,7.9,8.9h2.3V80.1z
		"/>
	<path class="st0" d="M241.5,76.2c0,0-5.1,4.4-13.9,4.4c-14.1,0-24.7-11-24.7-24.6c0-13.6,10.8-24.6,24.7-24.6
		c12.5,0,24.7,8.7,24.7,25v23.7h-10.8V76.2z M227.6,70.2c7.7,0,13.9-5.8,13.9-14.2c0-8.1-6-14.2-13.9-14.2
		c-7.8,0-13.9,6.1-13.9,14.2C213.7,64.3,219.8,70.2,227.6,70.2z"/>
	<path class="st0" d="M268.1,54.1v26h-10.8v-26c0-16.6,10.7-22.7,20.5-22.7c9.8,0,20.6,6.2,20.6,22.7v26h-10.8v-26
		c0-8.2-4-12.3-9.7-12.3C272.1,41.7,268.1,45.7,268.1,54.1z"/>
</g>
</svg>
